HIERARCHY
ROOT Hips
{
	OFFSET -0.001795 -0.223333 0.028219
	CHANNELS 6 Xposition Yposition Zposition Zrotation Yrotation Xrotation 
	JOINT LeftUpLeg
	{
		OFFSET 0.069520 -0.091406 -0.006815
		CHANNELS 3 Zrotation Yrotation Xrotation
		JOINT LeftLeg
		{
			OFFSET 0.034277 -0.375199 -0.004496
			CHANNELS 3 Zrotation Yrotation Xrotation
			JOINT LeftFoot
			{
				OFFSET -0.013596 -0.397961 -0.043693
				CHANNELS 3 Zrotation Yrotation Xrotation
				JOINT LeftToe
				{
					OFFSET 0.026358 -0.055791 0.119288
					CHANNELS 3 Zrotation Yrotation Xrotation
					End Site
					{
						OFFSET 0.000000 0.000000 0.000000
					}
				}
			}
		}
	}
	JOINT RightUpLeg
	{
		OFFSET -0.067670 -0.090522 -0.004320
		CHANNELS 3 Zrotation Yrotation Xrotation
		JOINT RightLeg
		{
			OFFSET -0.038290 -0.382569 -0.008850
			CHANNELS 3 Zrotation Yrotation Xrotation
			JOINT RightFoot
			{
				OFFSET 0.015774 -0.398415 -0.042312
				CHANNELS 3 Zrotation Yrotation Xrotation
				JOINT RightToe
				{
					OFFSET -0.025372 -0.048144 0.123348
					CHANNELS 3 Zrotation Yrotation Xrotation
					End Site
					{
						OFFSET 0.000000 0.000000 0.000000
					}
				}
			}
		}
	}
	JOINT Spine
	{
		OFFSET -0.002533 0.108963 -0.026696
		CHANNELS 3 Zrotation Yrotation Xrotation
		JOINT Spine1
		{
			OFFSET 0.005487 0.135180 0.001092
			CHANNELS 3 Zrotation Yrotation Xrotation
			JOINT Spine2
			{
				OFFSET 0.001457 0.052922 0.025425
				CHANNELS 3 Zrotation Yrotation Xrotation
				JOINT Neck
				{
					OFFSET -0.002778 0.213870 -0.042857
					CHANNELS 3 Zrotation Yrotation Xrotation
					JOINT Head
					{
						OFFSET 0.005152 0.064970 0.051349
						CHANNELS 3 Zrotation Yrotation Xrotation
						End Site
						{
							OFFSET 0.000000 0.000000 0.000000
						}
					}
				}
				JOINT LeftShoulder
				{
					OFFSET 0.078845 0.121749 -0.034090
					CHANNELS 3 Zrotation Yrotation Xrotation
					JOINT LeftArm
					{
						OFFSET 0.090977 0.030469 -0.008868
						CHANNELS 3 Zrotation Yrotation Xrotation
						JOINT LeftForeArm
						{
							OFFSET 0.259612 -0.012772 -0.027456
							CHANNELS 3 Zrotation Yrotation Xrotation
							JOINT LeftHand
							{
								OFFSET 0.249234 0.008986 -0.001171
								CHANNELS 3 Zrotation Yrotation Xrotation
								End Site
								{
									OFFSET 0.000000 0.000000 0.000000
								}
							}
						}
					}
				}
				JOINT RightShoulder
				{
					OFFSET -0.081759 0.118833 -0.038615
					CHANNELS 3 Zrotation Yrotation Xrotation
					JOINT RightArm
					{
						OFFSET -0.096012 0.032551 -0.009143
						CHANNELS 3 Zrotation Yrotation Xrotation
						JOINT RightForeArm
						{
							OFFSET -0.253742 -0.013329 -0.021401
							CHANNELS 3 Zrotation Yrotation Xrotation
							JOINT RightHand
							{
								OFFSET -0.255298 0.007772 -0.005559
								CHANNELS 3 Zrotation Yrotation Xrotation
								End Site
								{
									OFFSET 0.000000 0.000000 0.000000
								}
							}
						}
					}
				}
			}
		}
	}
}
MOTION
Frames: 7
Frame Time: 0.050000
-0.073820 0.926218 -0.059352 -1.639574 9.297167 9.792212 7.750970 -0.983929 -16.858725 9.065691 -1.564143 5.514086 -4.646804 -3.613052 9.223776 0.000000 0.000000 0.000000 -6.897851 0.672979 -18.746489 2.695560 -0.544000 20.924809 1.993274 5.128769 0.113209 0.000000 0.000000 0.000000 -2.697383 0.120425 -1.806779 1.588512 -0.354838 -5.921278 -0.486785 9.301949 -2.326277 0.000058 1.351552 -8.613900 0.000000 0.000000 0.000000 9.767434 4.148348 1.447368 -53.426468 -22.203269 1.525845 -140.043939 -60.373514 111.648371 0.000000 0.000000 0.000000 2.003044 4.378216 2.020021 51.882278 23.842358 7.180267 -136.965129 74.216449 -110.461563 0.000000 0.000000 0.000000 
-0.077008 0.933707 -0.055559 -2.204578 2.048286 9.943335 7.634204 -0.636172 -12.949577 9.893416 -1.361311 2.703800 -1.875289 1.685162 11.892467 0.000000 0.000000 0.000000 -5.748889 1.182431 -19.847022 0.758308 0.472542 20.224015 4.909404 10.769341 2.752440 0.000000 0.000000 0.000000 -3.100036 0.162570 -2.495826 3.716495 -1.342703 -5.525261 -0.248683 4.426232 -2.081374 -0.709457 1.491134 -9.674505 0.000000 0.000000 0.000000 9.679643 4.990941 0.359969 -51.007563 -19.347049 1.859767 -143.557746 -61.237944 123.482329 0.000000 0.000000 0.000000 -0.834005 3.716183 1.360021 54.065113 23.857214 7.069696 -160.879422 72.633352 -144.886673 0.000000 0.000000 0.000000 
-0.080192 0.940161 -0.053173 -2.762026 -5.975172 10.984234 6.738973 -0.458447 -10.095742 11.387525 -1.312185 0.570226 1.613107 7.177024 15.467789 0.000000 0.000000 0.000000 -3.781164 1.771968 -20.346657 0.140714 0.854018 17.040823 4.944592 9.301515 4.373782 0.000000 0.000000 0.000000 -3.559524 0.232288 -3.440318 4.978029 -1.976482 -4.685180 0.558040 -0.945531 -2.714413 -0.870628 1.122411 -11.688506 0.000000 0.000000 0.000000 11.178732 3.266397 -0.086863 -49.066556 -16.169892 2.055748 -152.899773 -63.028236 146.312122 0.000000 0.000000 0.000000 -3.219429 4.310816 1.760694 56.585738 24.296271 6.519638 -174.443859 70.769766 -170.335034 0.000000 0.000000 0.000000 
-0.082274 0.941909 -0.053040 -3.521805 -13.114695 11.280570 6.341712 -0.294448 -7.700111 11.920774 -1.358131 0.183752 5.166402 11.777307 17.874575 0.000000 0.000000 0.000000 -3.020888 2.171531 -21.063402 1.093311 0.743532 15.267563 6.449209 9.967511 7.215588 0.000000 0.000000 0.000000 -3.431879 0.246041 -2.642111 6.167229 -2.439326 -5.276652 1.766874 -6.795123 -2.094963 -3.533035 2.051317 -13.536397 0.000000 0.000000 0.000000 12.139828 1.947783 -0.897738 -48.920592 -16.347846 3.618980 -163.647274 -67.542561 172.549469 0.000000 0.000000 0.000000 -5.702752 5.010058 2.698917 60.571122 24.752844 5.171497 174.803997 69.683505 166.259707 0.000000 0.000000 0.000000 
-0.082439 0.937821 -0.054846 -4.134623 -19.717878 11.413993 6.768912 -0.107666 -6.527256 10.317384 -1.418490 1.841826 8.884261 16.398508 18.417002 0.000000 0.000000 0.000000 -2.108962 2.757687 -22.921067 -0.152671 1.360179 16.935336 8.748531 15.016461 7.281520 0.000000 0.000000 0.000000 -3.535202 0.229212 -0.639795 7.124673 -2.735485 -6.396579 2.477360 -12.115765 -0.786493 -5.272819 2.167797 -16.671993 0.000000 0.000000 0.000000 11.469993 0.454559 -1.427859 -48.517654 -18.321897 5.521496 176.371100 -73.885971 -153.080070 0.000000 0.000000 0.000000 -6.391383 3.691252 2.985964 63.138423 22.748533 1.901841 155.655755 66.697000 130.106381 0.000000 0.000000 0.000000 
-0.080204 0.931188 -0.055578 -5.266004 -27.293798 11.095692 7.115454 0.130326 -5.339601 8.571945 -1.483570 5.436831 13.272536 22.101294 18.934260 0.000000 0.000000 0.000000 -0.428147 3.560330 -24.620986 -1.959205 2.415332 19.661155 11.191146 20.911140 7.394594 0.000000 0.000000 0.000000 -2.330655 0.115083 1.348061 7.394519 -2.861222 -5.313456 3.065291 -14.210664 -1.150426 -5.956280 1.851258 -19.108225 0.000000 0.000000 0.000000 6.966761 -1.108940 -0.605019 -47.423650 -20.418212 6.243928 147.314070 -79.535906 -118.286333 0.000000 0.000000 0.000000 -3.838621 1.705461 1.753021 63.849701 19.071235 -0.773520 135.782622 64.232618 95.937103 0.000000 0.000000 0.000000 
-0.076480 0.923927 -0.053438 -6.267873 -32.516188 11.429604 7.615043 0.328850 -4.796051 6.520280 -1.172036 7.879405 16.399388 26.622850 18.649765 0.000000 0.000000 0.000000 0.684475 4.227618 -25.958410 -3.180990 3.253943 21.378096 12.426227 25.159387 6.935612 0.000000 0.000000 0.000000 -1.659833 0.050784 2.255459 7.768318 -2.941030 -5.222596 2.940283 -17.202491 -0.229319 -5.115903 0.793097 -20.136382 0.000000 0.000000 0.000000 4.443048 -2.131470 0.328337 -51.385189 -24.689821 9.536633 77.045384 -77.931911 -44.882984 0.000000 0.000000 0.000000 -2.698619 -0.226843 0.698428 65.358118 13.950875 -4.815612 122.067334 57.774358 68.674002 0.000000 0.000000 0.000000 
